<svg preserveAspectRatio="none" overflow="visible" style="display: block;" width="24" height="24" viewBox="0 0 24 24" fill="none" xmlns="http://www.w3.org/2000/svg">
<g id="analytics_24dp_5F6368_FILL0_wght300_GRAD0_opsz24 1">
<path id="Vector" d="M7.3655 16.75H8.86525V12H7.3655V16.75ZM15.1348 16.75H16.6345V7H15.1348V16.75ZM11.25 16.75H12.75V14H11.25V16.75ZM11.25 12H12.75V10H11.25V12ZM5.30775 20.5C4.80258 20.5 4.375 20.325 4.025 19.975C3.675 19.625 3.5 19.1974 3.5 18.6923V5.30775C3.5 4.80258 3.675 4.375 4.025 4.025C4.375 3.675 4.80258 3.5 5.30775 3.5H18.6923C19.1974 3.5 19.625 3.675 19.975 4.025C20.325 4.375 20.5 4.80258 20.5 5.30775V18.6923C20.5 19.1974 20.325 19.625 19.975 19.975C19.625 20.325 19.1974 20.5 18.6923 20.5H5.30775ZM5.30775 19H18.6923C18.7693 19 18.8398 18.9679 18.9038 18.9038C18.9679 18.8398 19 18.7693 19 18.6923V5.30775C19 5.23075 18.9679 5.16025 18.9038 5.09625C18.8398 5.03208 18.7693 5 18.6923 5H5.30775C5.23075 5 5.16025 5.03208 5.09625 5.09625C5.03208 5.16025 5 5.23075 5 5.30775V18.6923C5 18.7693 5.03208 18.8398 5.09625 18.9038C5.16025 18.9679 5.23075 19 5.30775 19Z" fill="#2F3941"/>
</g>
</svg>
