<svg preserveAspectRatio="none" overflow="visible" style="display: block;" width="24" height="24" viewBox="0 0 24 24" fill="none" xmlns="http://www.w3.org/2000/svg">
<g id="Outlined/24px/Symbols/group">
<g id="Vector">
<path d="M1.79812 19.3077V17.0846C1.79812 16.5692 1.93114 16.1093 2.19717 15.7048C2.46319 15.3003 2.81846 14.9856 3.26297 14.7607C4.21332 14.2959 5.16894 13.9375 6.12982 13.6856C7.09072 13.4337 8.14682 13.3077 9.2981 13.3077C10.4494 13.3077 11.5055 13.4337 12.4664 13.6856C13.4273 13.9375 14.3829 14.2959 15.3332 14.7607C15.7777 14.9856 16.133 15.3003 16.399 15.7048C16.665 16.1093 16.798 16.5692 16.798 17.0846V19.3077H1.79812ZM18.798 19.3077V16.9615C18.798 16.3051 18.6373 15.6796 18.3159 15.0848C17.9944 14.4901 17.5385 13.9797 16.9481 13.5539C17.6186 13.6539 18.2551 13.8087 18.8577 14.0183C19.4602 14.2279 20.0352 14.4757 20.5827 14.7616C21.0993 15.0372 21.4984 15.3621 21.7798 15.7362C22.0612 16.1103 22.2019 16.5187 22.2019 16.9615V19.3077H18.798ZM9.2981 11.6923C8.33562 11.6923 7.51167 11.3496 6.82625 10.6642C6.14083 9.97876 5.79812 9.15481 5.79812 8.19232C5.79812 7.22982 6.14083 6.40587 6.82625 5.72047C7.51167 5.03506 8.33562 4.69235 9.2981 4.69235C10.2606 4.69235 11.0845 5.03506 11.7699 5.72047C12.4553 6.40587 12.7981 7.22982 12.7981 8.19232C12.7981 9.15481 12.4553 9.97876 11.7699 10.6642C11.0845 11.3496 10.2606 11.6923 9.2981 11.6923ZM17.9326 8.19232C17.9326 9.15481 17.5899 9.97876 16.9045 10.6642C16.2191 11.3496 15.3951 11.6923 14.4327 11.6923C14.3198 11.6923 14.1763 11.6795 14.0019 11.6538C13.8276 11.6282 13.684 11.6 13.5712 11.5692C13.9655 11.0951 14.2686 10.5691 14.4804 9.9913C14.6922 9.41347 14.7981 8.81341 14.7981 8.19112C14.7981 7.56886 14.69 6.97118 14.474 6.3981C14.258 5.82503 13.9571 5.29747 13.5712 4.81542C13.7147 4.76414 13.8583 4.73081 14.0019 4.71543C14.1455 4.70004 14.2891 4.69235 14.4327 4.69235C15.3951 4.69235 16.2191 5.03506 16.9045 5.72047C17.5899 6.40587 17.9326 7.22982 17.9326 8.19232ZM3.2981 17.8077H15.2981V17.0846C15.2981 16.8756 15.2459 16.6897 15.1414 16.5269C15.0369 16.3641 14.8712 16.2218 14.6443 16.1C13.8212 15.6756 12.9737 15.3541 12.102 15.1355C11.2302 14.917 10.2955 14.8077 9.2981 14.8077C8.30067 14.8077 7.36605 14.917 6.49425 15.1355C5.62247 15.3541 4.77503 15.6756 3.95195 16.1C3.72503 16.2218 3.55932 16.3641 3.45482 16.5269C3.35034 16.6897 3.2981 16.8756 3.2981 17.0846V17.8077ZM9.2981 10.1923C9.8481 10.1923 10.3189 9.99649 10.7106 9.60482C11.1023 9.21316 11.2981 8.74232 11.2981 8.19232C11.2981 7.64232 11.1023 7.17149 10.7106 6.77982C10.3189 6.38816 9.8481 6.19232 9.2981 6.19232C8.7481 6.19232 8.27727 6.38816 7.8856 6.77982C7.49393 7.17149 7.2981 7.64232 7.2981 8.19232C7.2981 8.74232 7.49393 9.21316 7.8856 9.60482C8.27727 9.99649 8.7481 10.1923 9.2981 10.1923Z" fill="#2F3941"/>
</g>
</g>
</svg>
